<svg width="256" height="256" viewBox="0 0 256 256" fill="none" xmlns="http://www.w3.org/2000/svg">
<rect width="256" height="256" rx="15" fill="#14213D"/>
<path d="M79.25 176H57.5V71H79.25V176ZM154.273 71C161.773 71 168.473 71.85 174.373 73.55C180.373 75.15 185.423 77.55 189.523 80.75C193.623 83.85 196.773 87.7 198.973 92.3C201.173 96.8 202.273 101.95 202.273 107.75C202.273 113.55 201.173 118.75 198.973 123.35C196.773 127.85 193.623 131.7 189.523 134.9C185.423 138 180.373 140.4 174.373 142.1C168.473 143.7 161.773 144.5 154.273 144.5H122.023V176H100.273V71H154.273ZM122.023 82.25V133.25H154.273C162.173 133.25 168.273 131.2 172.573 127.1C176.973 122.9 179.173 116.45 179.173 107.75C179.173 99.05 176.973 92.65 172.573 88.55C168.273 84.35 162.173 82.25 154.273 82.25H122.023Z" fill="#FF6E6E"/>
</svg>
